# xmcd
#
# Track frame offsets:
#	150
#	26079
#	47223
#	68984
#	93937
#	115701
#	138846
#	164108
#	192189
#
# Disc length: 2943 seconds
#
# Revision: 3379076220
# Processed by: cddbd v1.5.2PL0 Copyright (c) Steve Scherf et al.
# Submitted via: EZCDAudioConverter 8.0.2.1
#
DISCID=7b0b7d09
DTITLE=Bảo Khánh - Để trả lời một câu hỏi
DYEAR=2016
DGENRE=Country
TTITLE0=Thương về cố đô
TTITLE1=Đoạn buồn đêm mưa
TTITLE2=Sương lạnh chiều đông
TTITLE3=Mong chờ
TTITLE4=Bài hương ca vô tận
TTITLE5=Như cõi hoang vu
TTITLE6=Xin thời gian qua mau
TTITLE7=Để trả lời một câu hỏi
TTITLE8=Thương quá cha tôi
EXTD=
EXTT0=
EXTT1=
EXTT2=
EXTT3=
EXTT4=
EXTT5=
EXTT6=
EXTT7=
EXTT8=
PLAYORDER=
